<svg xmlns="http://www.w3.org/2000/svg" width="460" height="460" viewBox="0 0 460 460" role="img" aria-labelledby="title desc">
	<title id="title">0disoft bird favicon</title>
	<desc id="desc">A hand-drawn black bird with a yellow beak on a blue background.</desc>
	<rect width="460" height="460" fill="#28aee8" />
	<g fill="none" stroke-linecap="round" stroke-linejoin="round">
		<g stroke="#6fd4f3" stroke-width="4" opacity=".7">
			<path d="M18 30c70-18 146-17 213-9 76 9 142-1 207 15" />
			<path d="M17 65c88-23 163 4 242-8 58-9 108-23 180-4" />
			<path d="M19 105c97-7 177 2 254-9 55-8 104-6 164 9" />
			<path d="M17 145c67 20 141-8 214-1 74 7 130-8 205 8" />
			<path d="M19 190c88 16 172-6 254 3 63 7 105-11 166 4" />
			<path d="M16 232c79-10 153 10 233 2 66-7 122 3 189-4" />
			<path d="M16 275c91 13 175-2 259 7 53 6 105-12 163 3" />
			<path d="M18 318c64-18 150-7 220-11 84-5 128 9 200 1" />
			<path d="M20 360c85 8 159-4 241 4 63 6 117-9 177 3" />
		</g>
		<g stroke="#0b171a" stroke-width="5">
			<path d="M17 66c12-23 24-6 26 10 6-37 35-48 48 0" />
			<path d="M324 50l22 22 18-33 10 35 34-15-22 27 38 11-47-1-25 28-1-33-37-14 33-8" />
			<path d="M351 163l24 25m-12-34 4 38m23-11 20 20m-6-33-6 41" />
			<path d="M402 221c12-27 27-23 25 17m5-44c1 34-1 55 16 74" />
			<path d="M421 344c9-30 22-25 20 8m4-22 6 62" />
			<path d="M38 235c24 0 39-31 39-31m-29-16c9 23 31 42 45 56m-38 0c18-16 25-43 21-66" />
		</g>
		<g stroke="#168249" stroke-width="5">
			<path d="M17 428c94-7 159 0 247-1 81-1 123 0 177-7" />
			<path d="M23 421c0-35-3-63-16-93" />
			<path d="M55 422c7-42 13-63 43-87" />
			<path d="M78 425c10-57 20-74 34-84" />
			<path d="M32 427c17-37 24-64 25-101" />
			<path d="M102 421c9-26 18-40 36-58" />
		</g>
	</g>
	<g stroke="#121212" stroke-linecap="round" stroke-linejoin="round">
		<path fill="#101010" stroke-width="8" d="M217 70c82 8 130 79 131 175 50 42 85 87 109 135-51-1-96-18-143-44-30 15-77 7-113-5-39-13-65-46-78-88-20-65-6-141 45-166 13-6 31-9 49-7z" />
		<path fill="#121212" stroke-width="8" d="M312 274c57 22 100 56 139 106-64-5-124-30-172-68z" />
		<path fill="#ffd81e" stroke-width="7" d="M40 148c47-44 95-60 151-45-35 24-85 49-151 45z" />
		<path fill="#ffd81e" stroke-width="7" d="M42 151c61-6 112-2 151 11-48 8-99 5-151-11z" />
		<path fill="#ffffff" stroke-width="5" d="M193 100c10-1 20 6 21 17 1 10-6 20-17 21-11 2-20-6-22-17-1-10 7-20 18-21z" />
		<path fill="#101010" stroke-width="3" d="M194 109c5 0 9 3 10 8 0 5-3 9-8 10s-10-3-10-8c-1-5 3-9 8-10z" />
		<g fill="none" stroke="#ffd81e" stroke-width="7">
			<path d="M195 333c-1 32-2 55-5 79" />
			<path d="M263 338c1 34 0 54-4 77" />
			<path d="M190 412l-31 19m31-17 35 7m33-6-28 20m28-17 34 6" />
		</g>
		<g fill="none" stroke="#303030" stroke-width="4" opacity=".85">
			<path d="M165 151c39 13 84 11 118 47" />
			<path d="M156 186c43 20 89 29 129 65" />
			<path d="M168 222c40 20 83 41 129 54" />
			<path d="M184 258c39 22 78 32 124 39" />
			<path d="M225 99c41 24 67 62 78 118" />
			<path d="M240 121c54 50 68 99 74 152" />
		</g>
	</g>
</svg>
